<?xml version="1.0" encoding="utf-8"?>
<!-- Generator: Adobe Illustrator 23.0.5, SVG Export Plug-In . SVG Version: 6.00 Build 0)  -->
<svg version="1.1" id="Layer_1" xmlns="http://www.w3.org/2000/svg" xmlns:xlink="http://www.w3.org/1999/xlink" x="0px" y="0px"
	 width="24.6px" height="39.7px" viewBox="0 0 24.6 39.7" style="enable-background:new 0 0 24.6 39.7;" xml:space="preserve" fill="currentColor">
<g>
	<path class="st0" d="M17.6,24.8c-0.4,1-0.8,2.1-1.2,3.1c0,0.1-0.1,0.2-0.2,0.3c-0.6,0.7-1.2,1.5-1.9,2.2c-0.1,0.1-0.2,0.2-0.4,0.2
		c-0.4,0.1-0.7,0.2-1.1,0.3c-0.1,0-0.2,0-0.4,0c-0.8-0.4-1.6-0.7-2.3-1.1c-0.1-0.1-0.2-0.1-0.3-0.2C8.9,28.8,8,27.9,7.1,27
		c-0.1-0.1-0.2-0.2-0.2-0.3c-0.4-0.6-0.8-1.2-1.1-1.8c-0.1-0.1-0.1-0.2-0.1-0.4c0-0.7,0-1.4,0-2.2c0-0.2,0-0.4,0-0.6
		c0.1-0.7,0.1-1.3,0.2-2C5.9,18.8,6,18,6.1,17.1c0-0.2,0-0.3-0.1-0.5c-0.4-0.5-0.7-1-1-1.5C4.8,15,4.8,14.9,4.6,15c0,0,0,0-0.1,0
		c-0.3,0-0.4,0.1-0.5,0.3c0,0.1,0,0.1,0,0.2c0,0.1,0,0.2,0,0.4c0,0,0.1,0,0.1,0c0.5-0.1,0.5-0.1,0.9,0.2C5,16.1,5,16.2,5.1,16.2
		c0.2,0.2,0.3,0.3,0.2,0.6c-0.1,0-0.1,0-0.1-0.1c-0.2-0.2-0.4-0.4-0.6-0.6c-0.2,0.2-0.3,0.4-0.4,0.5C4.1,16.9,4,17.1,4,17.3
		c0,0.2,0,0.3-0.1,0.5c-0.1-0.1-0.1-0.2-0.1-0.3c0-0.1,0-0.2-0.1-0.3c0-0.1,0-0.2,0-0.3c0.1-0.1,0.1-0.2,0.1-0.3
		c-0.1,0-0.1,0.1-0.2,0.1c0-0.2,0.1-0.3,0.1-0.4c0-0.1-0.1-0.1-0.2-0.1c-0.7-0.3-1.4-0.7-2.1-1.2c-0.4-0.3-0.7-0.6-1-1
		C0.3,13.5,0.1,13,0,12.6C0,12.3,0,12.1,0,11.8c0-0.2,0.1-0.4,0.2-0.6c0.2-0.4,0.5-0.7,0.9-1c0.5-0.4,1.2-0.7,1.8-0.9
		c0.8-0.3,1.6-0.4,2.4-0.5C6.9,8.6,8.4,8.6,10,8.7c3.5,0.2,6.9,0.9,10.1,2.3c0.7,0.3,1.5,0.7,2.1,1.1c0.5,0.3,1,0.7,1.4,1.1
		c0.3,0.3,0.5,0.6,0.7,0.9c0.4,0.7,0.4,1.4,0,2.1c-0.3,0.7-0.8,1.1-1.4,1.5c-0.7,0.4-1.4,0.7-2.1,0.9c-0.1,0-0.2,0.1-0.4,0.1
		c0,0,0,0-0.1,0.1c0.2,0.2,0.3,0.4,0.5,0.5c0.1,0.1,0.2,0.2,0.2,0.3c-0.2,0.1-0.3-0.1-0.5-0.1c-0.2-0.1-0.3-0.1-0.5-0.2
		c-0.2-0.1-0.3-0.3-0.5-0.4c-0.1-0.1-0.1-0.2-0.1-0.4c0-0.6,0.1-1.2,0.2-1.8c0.1-0.4,0.2-0.7,0.1-1.1c0-0.2-0.1-0.4-0.3-0.5
		c-0.5-0.5-1.1-0.8-1.8-1.1c-0.2-0.1-0.5-0.1-0.7,0c-1.1,0.4-0.8,0.5-1.6-0.2c-0.9-0.8-1.8-1.1-2.9-1.2c-1-0.1-1.9-0.2-2.9-0.2
		c-0.2,0-0.4,0.1-0.6,0.2C8.5,12.8,8,13,7.6,13.2c-0.1,0-0.1,0.1-0.1,0.2c0,0.1,0.1,0.2,0,0.3c-0.1,0.1-0.2,0-0.3-0.1
		c-0.1-0.1-0.3-0.2-0.4-0.1c-0.1,0-0.3,0.1-0.3,0.2c0,0.2,0.1,0.2,0.2,0.3c0.5,0.3,1,0.6,1.6,0.8c0.2,0.1,0.5,0.2,0.7,0.4
		c0.2,0.1,0.2,0.3,0,0.4c-0.3,0.1-0.6,0.2-0.9,0.3c-0.2,0.1-0.4,0.2-0.4,0.5c0,0.1,0,0.2-0.1,0.2c-0.3,0.1-0.3,0.3-0.4,0.6
		c-0.2,0.6-0.3,1.1-0.5,1.7c0,0.1-0.1,0.3,0,0.4c0,0,0,0.1,0,0.1c-0.2,0.7,0.1,1.3,0.1,2c0,0.1,0.1,0.3,0.1,0.4c0,0.1,0,0.3,0.1,0.3
		c0.4,0.2,0.6,0.7,1,1.1c0.4,0.3,0.7,0.7,1,1c0.1,0.1,0.1,0.2,0,0.3c-0.2,0.3-0.2,0.4,0.1,0.7c0.1,0.2,0,0.4,0.1,0.6
		c0,0,0,0.1,0,0.1c0.1,0,0.1,0,0.1,0c0.2-0.1,0.4-0.3,0.5-0.5c0,0,0.1-0.1,0.1-0.1c0.2-0.4,0.5-0.7,0.9-0.9c0.1-0.1,0.2-0.1,0.4-0.1
		c0.8,0,1.6,0,2.4,0c0.2,0,0.4,0,0.5,0c0.1,0.1,0,0.1,0,0.2C14.1,24.8,14,25,14,25.3c-0.1,0.2-0.1,0.2-0.3,0.2c-0.3,0-0.5,0-0.8,0.1
		c-0.6,0.1-1.2,0.1-1.9,0.2c-0.2,0-0.2,0-0.2,0.2c-0.1,0.3-0.1,0.5-0.2,0.8c0,0.1,0,0.1,0,0.2c0.3,0.5,0.5,1,0.8,1.5
		c0,0.1,0.1,0.1,0.2,0.1c0,0,0.1,0,0.1,0c0.4-0.2,0.4-0.2,0.6-0.6c0-0.1,0.1-0.2,0.1-0.3c0-0.1,0-0.3,0-0.4c0.6,0.1,1.2,0.2,1.8,0.3
		c0.1,0,0.1,0.1,0.1,0.2c0,0.3,0,0.6-0.2,0.9c0,0,0,0.1-0.1,0.2c0.2,0,0.4,0,0.6-0.2c0,0,0.1-0.1,0.1-0.1c0.6-0.7,0.6-0.7,0.9-1.6
		c0-0.1,0-0.2-0.1-0.3c-0.3-0.2-0.6-0.5-0.9-0.7c-0.1-0.1-0.1-0.1-0.1-0.2c0.1-0.3,0.1-0.6,0.2-0.9c0.1,0,0.1,0,0.2,0.1
		c0.4,0.3,0.8,0.6,1.2,0.9c0.1,0.1,0.2,0.2,0.2,0.4c0,0.1,0,0.3,0.1,0.4c0,0.1,0,0.2,0.1,0.3c0.4-0.7,0.7-1.3,1.1-2
		C17.7,24.6,17.7,24.7,17.6,24.8z" fill="currentColor"/>
	<path class="st0" d="M6.1,8.4c0-0.2,0-0.4,0-0.7c0-0.5,0.1-1.1,0.1-1.6c0.1-1,0.1-2.1,0.2-3.1c0-0.4,0.1-0.9,0.1-1.3
		c0-0.3,0.2-0.6,0.4-0.8C7,0.7,7.3,0.5,7.5,0.4c0.5-0.2,1-0.3,1.5-0.4c1-0.1,2-0.1,3,0c1.3,0.1,2.5,0.3,3.8,0.5
		c1.3,0.3,2.6,0.7,3.7,1.3c0.4,0.2,0.7,0.4,1,0.7c0.2,0.2,0.4,0.4,0.5,0.6c0.2,0.3,0.2,0.5,0.1,0.8c-0.3,1.1-0.5,2.2-0.7,3.3
		c-0.2,1-0.5,2.1-0.7,3.1c0,0.1,0,0.1,0,0.2c0,0,0,0.1-0.1,0c-0.1,0-0.2-0.1-0.2-0.1c-1.8-0.7-3.7-1.3-5.6-1.6
		c-1.2-0.2-2.4-0.4-3.6-0.5C8.9,8.3,7.5,8.3,6.1,8.4C6.1,8.4,6.1,8.4,6.1,8.4z" fill="currentColor"/>
	<path class="st0" d="M15.5,33.6c0.5,0.3,0.4,0.1,0.3,0.6c-0.1,0.4-0.2,0.8-0.4,1.2c-0.1,0.2-0.1,0.4-0.1,0.5c0,0.3-0.1,0.5-0.2,0.7
		c-0.5,0.8-1,1.6-1.5,2.4c-0.2,0.2-0.4,0.5-0.6,0.7c-0.2-0.2-3.1-4.4-3.2-4.7c0.1-0.1,0.3,0,0.4,0c0-0.1-0.1-0.1-0.1-0.1
		c-0.6-0.3-1.2-0.7-1.8-1c-0.2-0.1-0.3-0.2-0.5-0.4c-0.7-0.7-1.5-1.4-2.2-2.1c-0.1-0.1-0.1-0.1-0.2-0.2c-0.2,0.2-0.4,0.5-0.5,0.7
		c-0.2,0.2-0.4,0.5-0.5,0.7c-0.2,0.2-0.3,0.5-0.5,0.7c-0.1,0-0.1-0.1-0.1-0.2c-1-2.2-1.9-4.3-2.9-6.5c0,0,0-0.1-0.1-0.1
		c0-0.1,0-0.2,0.1-0.2c0.2-0.2,0.5-0.4,0.7-0.6c0.1,0.1,0.2,0.2,0.3,0.3c1.2,1.2,2.3,2.4,3.5,3.6c0.1,0.1,0.2,0.2,0.3,0.3
		c0-0.2-0.1-0.2-0.1-0.3c-0.8-1.1-1.5-2.2-2.3-3.3c-0.3-0.4-0.6-0.9-0.9-1.3c-0.1-0.1-0.1-0.2,0-0.4c0.1-0.1,0.1-0.3,0.2-0.4
		c0.1-0.1,0.3,0,0.4,0.1c0.2,0,0.4,0.1,0.6,0.2c0.2,0.1,0.3,0.3,0.5,0.4c1.3,1.3,2.6,2.6,3.9,4C7.9,29,8,29.2,8,29.4
		c0.1,0.2,0.2,0.4,0.2,0.7c-0.1,0.1-0.1,0-0.2,0c-0.2-0.2-0.4-0.4-0.6-0.5c-0.1-0.1-0.1-0.1-0.2,0C6.9,29.7,6.5,30,6,30.3
		c-0.1,0.1-0.2,0.2-0.3,0.3c0.1,0.1,0.1,0,0.1,0c0.4-0.3,0.9-0.6,1.3-0.9c0,0,0.1-0.1,0.1-0.1c0.1-0.1,0.1-0.1,0.2,0
		c0.2,0.2,0.5,0.4,0.7,0.6c0.1,0,0.1,0.1,0.2,0.1c0-0.1,0-0.2,0-0.3c0.1,0,0.1,0.1,0.1,0.1c0.7,1,1.3,2.1,2,3.1
		c0.1,0.1,0.1,0.2,0.2,0.3c0.3,0.7,0.6,1.3,1,2c0.3,0.6,0.5,1.2,0.7,1.8c0.1,0.3,0.2,0.6,0.3,0.9c0,0.1,0,0.2,0.1,0.2
		c0.1,0,0.1-0.1,0.1-0.1c0-0.6,0.1-1.2,0.1-1.8c0-0.2,0-0.4,0-0.5c0-0.4-0.1-0.8-0.2-1.2c0-0.2-0.1-0.4-0.2-0.5
		c-0.4-0.4-0.7-0.8-1.1-1.2c-0.1-0.1-0.1-0.2-0.1-0.3c0.2-0.6,0.4-1.1,0.6-1.7c0-0.1,0.1-0.1,0.2-0.1c0.3,0.1,0.5,0.1,0.8,0
		c0.4-0.2,0.9-0.3,1.4-0.4c0.1,0,0.2,0,0.3,0c0.6,0.4,1.2,0.8,1.8,1.2c0,0.1-0.2,0.1-0.2,0.2c0,0,0,0.1,0,0.1c0,0,0.1,0.1,0.1,0.1
		c0.1,0,0.1,0.1,0.1,0.2c-0.2,0.4-0.3,0.7-0.5,1.1c-0.1,0-0.2-0.1-0.3-0.1c-0.2,0-0.3-0.1-0.5-0.2c0,0,0,0,0,0c0,0-0.1,0-0.1,0
		c0,0,0.1,0,0.1,0C15.2,33.4,15.4,33.4,15.5,33.6z" fill="currentColor"/>
	<path class="st0" d="M10.1,17.1c0.3,0.1,0.6,0.1,0.9,0.1c0.5,0.1,1,0.1,1.5,0.2c0.5,0.1,1,0.3,1.4,0.5c0.3,0.2,0.6,0.3,0.9,0.5
		c0.5,0.3,1,0.4,1.6,0.3c0.4,0,0.8,0,1.1-0.1c0.7,0,1.3,0.1,2,0.3c0.1,0,0.2,0.1,0.4,0.1c0.4,0.1,0.8,0.2,1.1,0.5
		c0,0.2-0.1,0.4-0.1,0.6c0,0,0,0.1-0.1,0.1c-0.2,0-0.2,0.1-0.3,0.3c-0.2,0.4-0.4,0.7-0.5,1.1c-0.1,0.2-0.2,0.3-0.3,0.5
		c-0.4,0.6-0.9,0.8-1.6,0.8c-0.3,0-0.7-0.1-1-0.2c-0.5-0.2-0.9-0.5-1-1C16,21.6,16,21.3,15.9,21c0-0.4-0.1-0.7-0.1-1.1
		c0-0.1,0-0.3,0-0.4c-0.1-0.3-0.4-0.4-0.7-0.3c-0.1,0.1-0.2,0.2-0.3,0.4c-0.1,0.2-0.2,0.4-0.4,0.5c-0.2,0.3-0.4,0.5-0.6,0.8
		c-0.7,0.7-1.5,0.9-2.4,0.8c-0.4-0.1-0.8-0.2-1.2-0.5C9.8,21,9.5,20.6,9.5,20c0-0.5,0-1.1,0-1.6c0-0.2,0-0.3-0.1-0.5
		c0,0,0-0.1,0-0.1c0,0,0-0.1,0-0.1c0.1-0.2,0-0.4,0.2-0.5C9.7,17,9.9,17.2,10.1,17.1C10.1,17.1,10.1,17.1,10.1,17.1z"/>
	<path class="st0" d="M7.5,13.2c0,0.1,0.1,0.1,0.1,0.1c0.3,0.1,0.5,0.3,0.8,0.4c0.1,0,0.2,0.1,0.1,0.2c0,0.1,0.1,0.2,0.1,0.2
		c0.2,0.3,0.4,0.5,0.7,0.8c-0.1,0.1-0.1,0-0.2,0c-0.7-0.4-1.4-0.8-2.1-1.2c-0.1,0-0.2-0.1-0.2-0.1c0,0-0.1,0-0.1,0c0,0,0,0,0,0
		c0,0,0,0,0,0.1c0.1,0,0.2,0.1,0.2,0.1c0.9,0.5,1.7,0.9,2.6,1.4c0.1,0.1,0.2,0.1,0.3,0.2c0,0.1-0.1,0.1-0.2,0.1
		c-0.5,0.2-1.1,0.4-1.6,0.6c-0.1,0-0.1,0-0.2,0.1c0.2,0.1,0.7,0.4,1.1,0.6c0.1,0.1,0.2,0.1,0.4,0.2c0.1,0,0.1,0.1,0.1,0.2
		c-0.1,0.2-0.1,0.4-0.2,0.7c-0.6-0.3-1.1-0.7-1.7-1c-0.1,0.1-0.1,0.2-0.1,0.3c-0.2,0.6-0.3,1.3-0.5,1.9c-0.1,0.2-0.1,0.4-0.1,0.7
		c0.1,0.7,0.2,1.5,0.3,2.2c0,0.1,0.1,0.2,0.2,0.3c0.5,0.6,1.1,1.2,1.6,1.8C8.9,24,9,24,9,24.1c0.1,0.1,0.2,0.2,0.2,0.4
		c0,0.3,0,0.6,0,0.9c-0.1,0-0.2,0-0.3-0.1c-0.1-0.1-0.1-0.3,0-0.4c0-0.1,0.1-0.2,0.2-0.3c0-0.1-0.2-0.2-0.2-0.3
		c-0.1-0.1-0.2-0.1-0.2-0.2c-0.2-0.1-0.4-0.3-0.5-0.5c-0.1-0.1-0.2-0.2-0.3-0.3c-0.2-0.2-0.5-0.3-0.5-0.6c0-0.1,0-0.1-0.1-0.1
		c-0.1,0-0.2-0.1-0.3-0.2c-0.1-0.1-0.1-0.2-0.1-0.3c0-0.3-0.1-0.5-0.1-0.8c0-0.1,0-0.2,0-0.3c0-0.1,0-0.2,0-0.3c0-0.1,0-0.2,0-0.3
		c0-0.1,0-0.2,0-0.3c-0.1-0.2-0.1-0.3,0.1-0.5c0,0,0-0.1,0-0.1c-0.2-0.1-0.1-0.2-0.1-0.4c0.2-0.7,0.4-1.5,0.6-2.2
		c0-0.1,0.1-0.2,0.2-0.2c0,0,0.1,0,0.1,0c0,0,0-0.1,0-0.1c-0.1-0.3,0-0.4,0.2-0.5c0.2-0.1,0.5-0.2,0.7-0.3c0.1,0,0.2-0.1,0.4-0.1
		c0,0,0.1,0,0.1-0.1c0-0.1,0-0.1-0.1-0.1c-0.3-0.2-0.7-0.4-1-0.5c-0.1-0.1-0.2-0.1-0.3-0.2c0,0-0.1-0.1-0.1-0.1
		c-0.3-0.1-0.6-0.3-0.9-0.5c-0.2-0.1-0.3-0.3-0.2-0.5c0-0.1,0.1-0.1,0.1-0.1c0.1,0,0.2,0,0.2-0.1c0.2,0,0.4,0,0.5,0.2
		c0,0.1,0.1,0.1,0.2,0.1c0-0.1,0-0.1-0.1-0.1C7.3,13.3,7.3,13.3,7.5,13.2z" fill="currentColor"/>
	<path class="st1" d="M3.9,23.2C4,22.8,4,22.4,4,22c0-0.3,0-0.7-0.1-1c-0.1-0.4-0.1-0.8-0.2-1.2c0,0,0-0.1,0-0.1
		c0.1,0,0.1,0.1,0.1,0.1c0.1,0.2,0.3,0.5,0.4,0.7c0.2,0.3,0.2,0.6,0.3,0.9c0,0.1,0,0.1,0,0.2C4.4,22.1,4.2,22.7,3.9,23.2
		C4,23.2,4,23.2,3.9,23.2z" fill="currentColor"/>
	<path class="st2" d="M4.7,18.9c-0.2-0.2-0.3-0.4-0.4-0.5c0,0,0-0.1,0-0.1c0.1-0.2,0.3-0.4,0.4-0.7c0-0.1,0.1-0.1,0.1-0.1
		c0.2,0,0.3-0.1,0.5-0.1c0.1,0.1,0,0.1,0,0.2c-0.1,0.1-0.2,0.3-0.3,0.4c-0.1,0.1-0.2,0.3-0.2,0.5C4.8,18.5,4.7,18.7,4.7,18.9z" fill="currentColor"/>
	<path class="st3" d="M5.5,18.1c-0.1,0.3-0.1,0.6-0.2,0.9c0,0.1,0,0.2,0.1,0.3c0.1,0.1,0.2,0.2,0.2,0.4c-0.2,0-0.3-0.1-0.4-0.1
		c-0.1,0-0.1-0.1-0.1-0.1c0,0,0,0,0,0c-0.2-0.6-0.2-0.6,0.1-1C5.3,18.3,5.3,18.2,5.5,18.1C5.4,18.1,5.4,18.1,5.5,18.1z" fill="currentColor"/>
	<path class="st4" d="M4.1,18.8c0,0,0.1,0.1,0.1,0.1c0.2,0.3,0.3,0.5,0.5,0.8c-0.2-0.1-0.5-0.4-0.5-0.5C4.1,19.1,4.1,19,4.1,18.8
		C4.1,18.8,4.1,18.8,4.1,18.8z" fill="currentColor"/>
	<path class="st5" d="M17.6,24.8c0,0,0-0.1-0.1-0.1c0.1-0.2,0.2-0.4,0.4-0.6l0,0c0,0.1,0,0.1,0,0.2C17.8,24.4,17.7,24.6,17.6,24.8z"
		 fill="currentColor"/>
	<path class="st5" d="M17.9,24C17.9,24,17.9,24,17.9,24C17.9,24,17.9,24,17.9,24C17.9,24,17.9,24,17.9,24C17.9,24,17.9,24,17.9,24z"
		 fill="currentColor"/>
	<path class="st0" d="M8.3,16.9c0.2,0.1,0.4,0.2,0.6,0.3c0,0,0,0.1,0.1,0.1c0,0,0,0,0,0.1c0,0,0,0,0,0c-0.1-0.1-0.3-0.2-0.5-0.3
		C8.4,17,8.3,17,8.3,16.9z"  fill="currentColor"/>
	<path class="st0" d="M7.8,13.8c0.1,0,0.2,0,0.3,0.1c0,0,0,0,0,0.1c0,0,0,0-0.1,0C7.9,14,7.8,13.9,7.8,13.8z" fill="currentColor"/>
	<path class="st0" d="M8.3,16.9c-0.1,0-0.2,0-0.3-0.1c0,0,0-0.1,0-0.1c0,0,0,0,0.1,0C8.1,16.8,8.2,16.8,8.3,16.9z" fill="currentColor"/>
	<polygon class="st0" points="7.8,13.8 7.8,13.8 7.8,13.8" fill="currentColor"/>
</g>
</svg>
